<svg xmlns="http://www.w3.org/2000/svg" width="621.057" height="528.764" viewBox="0 0 621.057 528.764"><g transform="translate(0 0.001)"><path d="M765.445,647.832H766.9V476.652a4.825,4.825,0,0,1,1.607-3.64l-.918-1.213a6.433,6.433,0,0,0-2.141,4.853Z" transform="translate(-578.108 -190.367)" fill="#3f3d56"/><path d="M566.757,135.23a14.5,14.5,0,0,0-.835,2.878C566.329,136.6,566.648,135.574,566.757,135.23Z" transform="translate(-231.484 -117.058)" fill="#3f3d56"/><path d="M582.172,196.37a24.436,24.436,0,0,0,1.082,4.975Z" transform="translate(-259.78 -130.375)" fill="#3f3d56"/><path d="M316.889,340.931c28.558,16.035,65.917,29.88,77.106,33.892-8.532-2.393-33.365-5.616-71.842,20.243-48.345,32.484-100.037,10.826-100.037,10.826s11.487,23.724,35.9,25.265,88.07-41.761,109.607-29.387,31.593-3.1,40.212,27.846,24.4,115.49,6.216,162.93l-18.182,47.432H499.253S461.916,532.731,482.5,466.738c11.523-36.958,27.7-63.725,33.735-77.327,3.028-6.813,3.507-10.317-.414-10.145-2.229.1-5.882,1.392-11.306,3.942,0,0,24.891-26.3,33.024-26.3s46.435-4.122,58.873-18.045c0,0,17.71-13.407,49.3,19.594s23.933,33,52.171,30.419c27.8-2.542,49.572-17.067,50.247-17.521-.806.352-33.271,14.33-53.115,7.212-20.106-7.22-37.337-34.549-55.047-43.826s-28.239-21.659-52.171-8.252l15.771-40.056,4.32-10.974.007-.016s5.272-75.278,15.321-80.432,3.827-18.561,22.495-21.143c0,0-22.974-3.1-27.28,13.923s-33.989,108.794-33.989,108.794-18.182,39.18-38.288,29.9,7.66-61.355,7.66-61.355l34.461-17.02s-25.85-1.033-41.643,14.955-16.751,67.542-16.751,67.542-39.726,6.187-49.3,29.395c0,0-6.223-20.626,5.743-33,2.992-3.1,6.136-8.479,9.164-14.807a139.7,139.7,0,0,0,11.865-78.782c-1.779-13.188-2.875-26.086-.922-29.129,4.306-6.7,22.5-47.948,23.933-58.781S528.929,112,528.929,112s-.479,27.838-6.223,36.606-22.016,52.078-22.016,52.078,0,54.651-13.4,81.465-39.246,56.716-37.816,76.31V369.8s-28.718-29.387-26.8-39.188,4.306-33,22.495-46.916,30.156-36.1,17.231-68.066c-7.268-17.982-10.449-27.643-11.843-32.656L458.09,217.7s4.785,35.574-8.619,47.948c-.036.031-.065.063-.1.094-13.382,12.39-31.005,34.972-31.005,34.972l.051-.993,3.776-73.252-.828,1.955-5.969,14.1-5.649,13.336s-26.8-37.123-58.394-49.5-51.213-55.684-51.213-55.684L273.33,127.98l22.023,28.362s6.7,33.509,44.511,57.233,62.221,58.774,63.658,80.432,2.875,40.736,2.875,40.736-70.84-2.581-86.633-36.1-28.725-35.058-28.725-35.058l9.1,28.871,10.049,24.748s-41.163,1.032-62.7,27.33-75.146,34.033-75.146,34.033l30.148,8.761A268.733,268.733,0,0,0,258.5,357.943C285.776,338.866,282.907,321.853,316.889,340.931Z" transform="translate(-127.079 -111.998)" fill="#1e301e"/><path d="M651.982,314.74c3.028,14.439,6.593,28.386,11.6,39.016,15.793,33.517,86.633,36.1,86.633,36.1s-.334-4.427-.842-11.412c-17.986-1.6-67.151-8.409-79.981-35.636-1.176-2.487-2.266-5.162-3.3-7.978Z" transform="translate(-477.434 -156.157)" opacity="0.1"/><path d="M583.342,344.08s17.71-22.691,31.107-35.065a25.4,25.4,0,0,0,6.433-10.857c.116-.344.225-.7.334-1.048-.312.329-.624.649-.958.954-11.727,10.833-26.765,29.575-30.33,34.072l-.777.993,3.725-72.29-5.969,14.1Z" transform="translate(-298.592 -144.417)" opacity="0.1"/><path d="M776.341,251.008a117.423,117.423,0,0,0,1.634,20.245s-26.793-37.108-58.375-49.49c-1.866-1.272-3.76-2.524-5.7-3.74-37.813-23.718-44.514-57.232-44.514-57.232l-22.018-28.358,26.8,22.687S693.8,198.429,725.39,210.8C746.923,219.239,766.229,239.17,776.341,251.008Z" transform="translate(-501.843 -116.448)" opacity="0.1"/><path d="M619.2,423.352V434.7s-28.719-29.39-26.8-39.186c1.464-7.492,3.217-22.822,12.092-35.848-4,9.844-5.218,19.446-6.283,24.9-1.373,7.025,13.006,24.124,21.252,33.237A25.3,25.3,0,0,0,619.2,423.352Z" transform="translate(-303.341 -165.942)" opacity="0.1"/><path d="M567,341.567c-.227.523-.462,1.037-.711,1.534-7.34,14.684-18.406,30.292-26.685,44.63C546.3,373.533,557.94,357.3,567,341.567Z" transform="translate(-212.617 -162)" opacity="0.1"/><path d="M769.147,468.549c15.745-10.58,29.2-16.289,40.2-19.182,11.532,4.676,21.024,8.162,25.8,9.874-8.565-2.388-33.381-5.561-71.806,20.258-30.149,20.258-61.6,19.459-81,15.989a52.967,52.967,0,0,1-13.225-16.112S720.8,501.032,769.147,468.549Z" transform="translate(-574.797 -185.481)" opacity="0.1"/><path d="M567.7,289.375c3.86-10.188,4.5-22.31.061-36.515a119.917,119.917,0,0,0-.825-15.4l-7.537-34.73c1.39,5.008,4.569,14.67,11.845,32.668C580.454,258.181,577.017,275.984,567.7,289.375Z" transform="translate(-236.652 -131.76)" opacity="0.1"/><path d="M859.628,401.956c14.937-18.236,39.309-24.32,52.848-26.337l4.046,9.961s-41.163,1.031-62.7,27.327c-11.944,14.582-33.748,23.454-50.805,28.467l-18.533-5.387S838.089,428.252,859.628,401.956Z" transform="translate(-739.947 -169.417)" opacity="0.1"/><path d="M413.541,383.028c-20.1-9.281,7.658-61.357,7.658-61.357l.759-.375c-6.921,15.73-16.959,44.157-2.609,50.781,13.428,6.2,26-9.224,32.869-20.151l-.386,1.2S433.644,392.309,413.541,383.028Z" transform="translate(-0.995 -157.585)" opacity="0.1"/><path d="M482.829,432.132s-6.057-20.114,5.322-32.532c-2.791,10.7.487,21.582.487,21.582,7.405-17.949,32.851-25.714,44-28.311-.432,5.976-.505,9.872-.505,9.872S492.4,408.93,482.829,432.132Z" transform="translate(-135.858 -173.175)" opacity="0.1"/><path d="M584.251,201.345a24.418,24.418,0,0,1-1.079-4.972Z" transform="translate(-261.503 -130.375)" opacity="0.1"/><path d="M280.833,443.875c-.1-.033-.195-.064-.29-.1-20.1-7.219-37.334-34.546-55.044-43.827s-28.24-21.655-52.172-8.25c0,0,4.187-18.461,12.3-30.59a126.535,126.535,0,0,0-6.491,19.64c23.932-13.406,34.462-1.031,52.172,8.25s34.941,36.608,55.044,43.827,53.129-7.219,53.129-7.219-22.018,14.953-50.258,17.531C285.993,443.433,283.236,443.692,280.833,443.875Z" transform="translate(280.861 -166.257)" opacity="0.1"/><path d="M353.072,312.527s.784.016,2.207.039l4.32-10.974c-.472-.008-.719-.016-.719-.016s3.326-47.479,9.73-69.607c-.08.039-.145.086-.218.125C358.344,237.25,353.072,312.527,353.072,312.527Z" transform="translate(121.216 -138.129)" opacity="0.1"/><path d="M535.549,728.718c-8.77-28.961-29.861-109.046-13.256-162.293,7.171-23,13.818-37.659,19.437-47.014A277.79,277.79,0,0,0,528.1,555.475c-20.582,66,16.753,173.244,16.753,173.244Z" transform="translate(-173.407 -200.737)" opacity="0.1"/><path d="M488.408,468.581a50.12,50.12,0,0,1,18.254-4.748c3.028-6.813,3.507-10.317-.414-10.145-1.089.211-2.186.461-3.275.751C495.277,461.323,488.408,468.581,488.408,468.581Z" transform="translate(-117.505 -186.421)" opacity="0.1"/><path d="M340.365,211.727a13.4,13.4,0,0,1-1.968,2.711,15.114,15.114,0,0,1,1.968-2.711Z" transform="translate(160.117 -133.72)" opacity="0.1"/><path d="M395.569,311.922a24.485,24.485,0,0,0-2.075,2.41c2.1-5.43,4.686-10.125,7.884-13.361,15.8-15.984,41.642-14.953,41.642-14.953l-32.415,16a45.839,45.839,0,0,0-15.036,9.9Z" transform="translate(17.455 -149.898)" opacity="0.1"/><path d="M488.744,204.29c-1.953,3.039-.856,15.938.927,29.129A139.692,139.692,0,0,1,477.8,312.2a93.686,93.686,0,0,1-5.1,9.431,139.9,139.9,0,0,0,11.16-77.258c-1.783-13.192-2.881-26.09-.927-29.129,4.308-6.7,22.5-47.951,23.932-58.779a80.806,80.806,0,0,0,.3-12.652C510.885,132.446,511.24,112,511.24,112s2.872,22.687,1.436,33.514S493.052,197.588,488.744,204.29Z" transform="translate(-110.117 -111.997)" opacity="0.1"/><path d="M566.859,138.035a15.6,15.6,0,0,1,.869-2.967S567.36,136.181,566.859,138.035Z" transform="translate(-233.136 -117.022)" opacity="0.1"/><path d="M327.164,202.107c-4.218.556-9.071,1.951-12.772,5.184.241-.88.452-1.668.62-2.331,4.308-17.015,27.283-13.921,27.283-13.921C331.911,192.472,329.229,197.256,327.164,202.107Z" transform="translate(175.619 -129.165)" opacity="0.1"/><path d="M970.294,748.7c7.138,11.792,5.182,26.791,5.182,26.791s-13.53-4.121-20.668-15.913-5.182-26.791-5.182-26.791S963.156,736.911,970.294,748.7Z" transform="translate(-918.884 -247.214)" fill="#bfff8e"/><path d="M938.795,748.589c.564,14.065,10.256,25.037,10.256,25.037s8.777-11.832,8.213-25.9-10.257-25.037-10.257-25.037S938.231,734.524,938.795,748.589Z" transform="translate(-892.747 -245.014)" fill="#137007"/><path d="M803.218,639.873s-8.214-9.282-11.576-7.415,9.666,10.168,9.666,10.168Z" transform="translate(-631.441 -225.306)" fill="#ffb9b9"/><path d="M803.218,639.873s-8.214-9.282-11.576-7.415,9.666,10.168,9.666,10.168Z" transform="translate(-631.441 -225.306)" opacity="0.1"/><path d="M782.218,616a23.319,23.319,0,0,1,2.229,12.115c-.79,6.285-8.016,26.452-10.472,26.093s-20.653-14.8-20.653-14.8l3.47-5.22,13.293,8.676S772.111,611.83,782.218,616Z" transform="translate(-585.38 -221.691)" fill="#d0cde1"/><path d="M787.548,631.173l20.723,12.262a.927.927,0,0,0,.825.134,1.015,1.015,0,0,0,.626-.6l5.076-11.431a1.47,1.47,0,0,0-.679-1.713l-17.205-9.553a.958.958,0,0,0-1.316.271L787,629.27a1.469,1.469,0,0,0-.107,1.077A1.352,1.352,0,0,0,787.548,631.173Z" transform="translate(-640 -222.673)" fill="#1e301e"/><path d="M616.334,517.911l19.427,11.962,5.17-10.037-16.666-9.763Z" transform="translate(-467.403 -111.1)" fill="#137007"/><path d="M.308.5A.255.255,0,0,0,.6.263.3.3,0,0,0,.29,0,.255.255,0,0,0,0,.241.3.3,0,0,0,.308.5Z" transform="matrix(-0.641, -0.768, 0.768, -0.641, 165.414, 403.578)" fill="#f2f2f2"/><path d="M.206.336A.17.17,0,0,0,.4.175.2.2,0,0,0,.193,0,.17.17,0,0,0,0,.161.2.2,0,0,0,.206.336Z" transform="matrix(-0.641, -0.768, 0.768, -0.641, 158.201, 413.717)" fill="#f2f2f2"/><path d="M782.218,616a23.319,23.319,0,0,1,2.229,12.115c-.79,6.285-8.016,26.452-10.472,26.093s-20.653-14.8-20.653-14.8l3.47-5.22,13.293,8.676S772.111,611.83,782.218,616Z" transform="translate(-585.38 -221.691)" opacity="0.1"/><path d="M796.284,642.576s-9.3-8.011-12.395-5.674,10.845,8.679,10.845,8.679Z" transform="translate(-618.954 -226.235)" fill="#ffb9b9"/><ellipse cx="8.986" cy="9.68" rx="8.986" ry="9.68" transform="translate(180.739 364.937)" fill="#ffb9b9"/><path d="M805.059,677.134s-9.606,1.335-9.3,7.677,7.437,32.712,7.437,32.712l.62,10.348s-.62,17.357,1.239,17.023,6.2-12.35,6.2-12.35,5.268-3.672,2.789-7.01-4.338-3-3.718-6.676.31-19.026-1.549-23.7-2.943-7.251-2.943-7.251l6.041-.427Z" transform="translate(-646.321 -235.091)" fill="#ffb9b9"/><path d="M805.059,677.134s-9.606,1.335-9.3,7.677,7.437,32.712,7.437,32.712l.62,10.348s-.62,17.357,1.239,17.023,6.2-12.35,6.2-12.35,5.268-3.672,2.789-7.01-4.338-3-3.718-6.676.31-19.026-1.549-23.7-2.943-7.251-2.943-7.251l6.041-.427Z" transform="translate(-646.321 -235.091)" opacity="0.1"/><path d="M826.9,679.268s-9.3,2.336-10.226,9.012-5.578,26.37-5.578,26.37L806.141,727s-7.747,15.021-4.338,14.687,8.057-7.677,9.606-7.677,6.2-2,5.887-3.338a39.973,39.973,0,0,0-2.479-5.341l7.5-14.067a35.724,35.724,0,0,0,3.252-8.669,64.924,64.924,0,0,0,1.646-8.64c0-2.337,6.2-3.338,6.2-3.338Z" transform="translate(-668.783 -235.556)" fill="#ffb9b9"/><path d="M757.588,651.956l-4.338,13.352s-6.817,2-11.775,3.672-14.254-.668-15.183,3.338,1.859,11.015,4.648,12.684,4.338,3.338,13.324.668,30.367-3.338,30.367-3.338a14.764,14.764,0,0,0,6.817,2.337c4.028.334,4.958.668,6.2-.334s-.62-1-1.24-3.672-.93-1.669-3.718-4.673-4.958-12.017-6.507-15.021-2.479-9.012-2.479-9.012Z" transform="translate(-569.102 -229.607)" fill="#1e301e"/><path d="M749.3,599.322A10.019,10.019,0,0,1,753.019,607c0,5.007,9.3-5.341,9.3-5.341s-4.958-6.676-4.958-8.679S749.3,599.322,749.3,599.322Z" transform="translate(-560.196 -216.694)" fill="#ffb9b9"/><path d="M757.943,598.613s-5.578,2.337-6.817,5.674-5.887,10.348-5.887,10.348-6.507,7.343-4.338,15.354,4.028,10.014,4.028,11.349,3.1,3.672,5.578,3.338,11.775-1.669,12.395-3,4.338-20.361,1.859-27.371a168.005,168.005,0,0,0-6.817-15.688Z" transform="translate(-557.063 -217.988)" fill="#d0cde1"/><path d="M745.018,586.619c-2.011.514-3.984-.866-5.632-2.234-.936-.777-1.965-1.885-1.679-3.136.254-1.109,1.468-1.738,1.644-2.866a12.116,12.116,0,0,0-.337-2.34,3.312,3.312,0,0,1,1.8-2.835c.98-.568,2.091-.805,3.1-1.314,1.537-.777,2.814-2.177,4.456-2.625,2.242-.613,4.526.692,6.831.861a40.5,40.5,0,0,1,4.189.032,6.322,6.322,0,0,1,4.79,6.08c.018,1.062-.179,2.248.409,3.09a4.468,4.468,0,0,0,.788.769c2.05,1.786,2.981,4.77,3.087,7.645.052,1.415-.223,3.1-1.388,3.7a4.805,4.805,0,0,1-1.943.291,1.979,1.979,0,0,0-1.715.882c-.531,1.009.265,2.5-.43,3.379a1.493,1.493,0,0,1-2.148-.122c-.609-.563-.989-1.374-1.566-1.976-1.123-1.172-2.789-1.384-4.329-1.562a2.092,2.092,0,0,1-1.27-.449,2.183,2.183,0,0,1-.521-1.15,7.669,7.669,0,0,1-.008-3.02,1.8,1.8,0,0,0,.035-.956,1.328,1.328,0,0,0-.454-.548c-.954-.772-2.626-1.9-3.866-1.684C747.489,584.764,746.406,586.264,745.018,586.619Z" transform="translate(-557.9 -211.561)" fill="#1e301e"/><path d="M773.312,613.931a22.962,22.962,0,0,1,3.718,11.683c0,6.342-4.648,27.371-7.127,27.371s-22.31-11.683-22.31-11.683l2.789-5.674,14.254,6.676S762.776,611.26,773.312,613.931Z" transform="translate(-573.671 -221.289)" fill="#d0cde1"/><rect width="71.159" height="14.862" transform="translate(157.567 452.891)" fill="#137007"/><path d="M757.326,658.51a6.053,6.053,0,0,0,5.809-6.258V476.26a6.312,6.312,0,0,0-3.315-5.651,5.476,5.476,0,0,0-6.161.8l.918,1.213a4.107,4.107,0,0,1,4.621-.6,4.734,4.734,0,0,1,2.486,4.238V652.253a4.539,4.539,0,0,1-4.357,4.693Z" transform="translate(-564.179 -189.975)" fill="#3f3d56"/><rect width="585.248" height="1.564" transform="translate(0 527.199)" fill="#3f3d56"/><path d="M.835,4.561c.413.015.711-.994.666-2.253S1.084.015.671,0-.041.994,0,2.253.422,4.546.835,4.561Z" transform="matrix(-0.78, -0.626, 0.626, -0.78, 204.647, 370.668)" fill="#137007"/><path d="M674.294,748.7c7.138,11.792,5.182,26.791,5.182,26.791s-13.53-4.121-20.668-15.913-5.182-26.791-5.182-26.791S667.156,736.911,674.294,748.7Z" transform="translate(-407.954 -247.214)" fill="#bfff8e"/><path d="M642.795,748.589c.564,14.065,10.256,25.037,10.256,25.037s8.777-11.832,8.213-25.9-10.256-25.037-10.256-25.037S642.231,734.524,642.795,748.589Z" transform="translate(-381.817 -245.014)" fill="#137007"/><path d="M516.524,751.262c-3.413,13.59-15.1,22.006-15.1,22.006s-6.156-13.617-2.743-27.206,15.1-22.006,15.1-22.006S519.936,737.672,516.524,751.262Z" transform="translate(-132.706 -245.311)" fill="#bfff8e"/><path d="M484.251,752.14c-9.365,9.82-10.508,24.916-10.508,24.916s14.039-.826,23.4-10.646,10.508-24.915,10.508-24.915S493.616,742.32,484.251,752.14Z" transform="translate(-105.449 -249.109)" fill="#137007"/><path d="M437.8,276.787c.814,14.051,10.7,24.821,10.7,24.821s8.566-12.011,7.751-26.061-10.7-24.821-10.7-24.821S436.983,262.736,437.8,276.787Z" transform="translate(-27.956 -142.214)" fill="#137007"/><path d="M302.043,168.946c-11.055,7.508-15.087,22.018-15.087,22.018s13.892,2.337,24.947-5.172,15.087-22.018,15.087-22.018S313.1,161.438,302.043,168.946Z" transform="translate(210.845 -123.2)" fill="#137007"/><path d="M268.043,387.946c-11.055,7.508-15.087,22.018-15.087,22.018s13.892,2.337,24.947-5.172,15.087-22.018,15.087-22.018S279.1,380.438,268.043,387.946Z" transform="translate(269.533 -170.901)" fill="#137007"/><path d="M571.844,194.927c3.334,13.612,14.974,22.107,14.974,22.107s6.235-13.575,2.9-27.187-14.974-22.107-14.974-22.107S568.511,181.315,571.844,194.927Z" transform="translate(-259.015 -124.139)" fill="#137007"/><path d="M716.856,208.465c3.919,13.43,15.913,21.332,15.913,21.332s5.642-13.873,1.723-27.3-15.913-21.332-15.913-21.332S712.937,195.034,716.856,208.465Z" transform="translate(-509.194 -127.062)" fill="#137007"/><path d="M874.815,399.7c7.1,11.821,20.614,16,20.614,16s2.007-14.991-5.091-26.811-20.613-15.995-20.613-15.995S867.717,387.879,874.815,399.7Z" transform="translate(-780.823 -168.823)" fill="#137007"/><path d="M866,206" transform="translate(-748.618 -132.472)" fill="#3f3d56"/></g></svg>